<?xml version="1.0" encoding="UTF-8"?>
<svg id="Layer_1" data-name="Layer 1" xmlns="http://www.w3.org/2000/svg" viewBox="0 0 269.9 277.93">
  <defs>
    <style>
      .cls-1 {
        fill: #bcbebf;
      }

      .cls-2 {
        fill: #f37021;
      }
    </style>
  </defs>
  <g>
    <path class="cls-2" d="M137,199.41c-30.99,0-56.21-25.51-56.21-56.87s25.21-56.87,56.21-56.87,56.21,25.51,56.21,56.87c0,5.96-.91,11.83-2.69,17.44l-2.06-.65c1.72-5.41,2.59-11.05,2.59-16.79,0-30.17-24.25-54.71-54.05-54.71s-54.05,24.54-54.05,54.71,24.24,54.71,54.05,54.71c6.57,0,12.98-1.18,19.06-3.5l.77,2.02c-6.33,2.42-13.01,3.64-19.84,3.64Z"/>
    <path class="cls-2" d="M162.2,186.22c-10.5,0-19.04-8.25-19.04-18.39s8.54-18.39,19.04-18.39,19.04,8.25,19.04,18.39-8.54,18.39-19.04,18.39Zm0-34.62c-9.3,0-16.87,7.28-16.87,16.23s7.57,16.23,16.87,16.23,16.87-7.28,16.87-16.23-7.57-16.23-16.87-16.23Z"/>
    <path class="cls-2" d="M184.91,195.41c-1.18,0-2.34-.46-3.19-1.38l-8.12-8.77c-.77-.83-1.15-1.9-1.09-3.02,.06-1.12,.57-2.15,1.44-2.9h0c1.76-1.51,4.46-1.36,6.03,.33l8.12,8.77c.77,.83,1.15,1.9,1.09,3.02-.06,1.12-.57,2.15-1.44,2.9-.81,.7-1.83,1.04-2.84,1.04Zm-9.55-14.42c-.41,.36-.66,.85-.69,1.38-.03,.53,.15,1.04,.52,1.43l8.12,8.77c.78,.84,2.16,.91,3.03,.16,.41-.36,.66-.85,.69-1.38,.03-.53-.15-1.04-.52-1.43l-8.12-8.77c-.77-.84-2.16-.91-3.03-.16h0Z"/>
    <path class="cls-2" d="M121.56,187.48c-31.71-45.38-.31-89.91,.01-90.36l1.75,1.26c-.31,.43-30.8,43.76,.01,87.85l-1.77,1.24Z"/>
    <rect class="cls-2" x="135.92" y="95.28" width="2.16" height="93.98"/>
    <rect class="cls-2" x="101.07" y="170.45" width="35.5" height="2.16"/>
    <rect class="cls-2" x="89.1" y="142.01" width="91.75" height="2.16" transform="translate(-1.67 1.59) rotate(-.67)"/>
    <path class="cls-2" d="M163.28,140.99l-2.14-.26c2.48-20.52-12.9-42.13-13.06-42.35l1.75-1.26c.66,.91,16.03,22.51,13.45,43.87Z"/>
    <rect class="cls-2" x="101.07" y="111.51" width="71.39" height="2.16"/>
  </g>
  <g>
    <path class="cls-1" d="M135.44,261.6c-64.1,0-116.25-53.69-116.25-119.69S71.34,22.22,135.44,22.22s116.25,53.69,116.25,119.69-52.15,119.69-116.25,119.69Zm0-237.22c-62.91,0-114.09,52.72-114.09,117.53s51.18,117.53,114.09,117.53,114.09-52.72,114.09-117.53S198.35,24.38,135.44,24.38Z"/>
    <path class="cls-1" d="M134.95,277.93C60.54,277.93,0,215.59,0,138.96S60.54,0,134.95,0s134.95,62.34,134.95,138.96-60.54,138.96-134.95,138.96ZM134.95,1.08C61.13,1.08,1.08,62.93,1.08,138.96s60.05,137.88,133.87,137.88,133.87-61.85,133.87-137.88S208.77,1.08,134.95,1.08Z"/>
  </g>
</svg>